<mxfile host="Electron" agent="Mozilla/5.0 (X11; Linux x86_64) AppleWebKit/537.36 (KHTML, like Gecko) draw.io/25.0.1 Chrome/128.0.6613.186 Electron/32.2.6 Safari/537.36" version="25.0.1">
  <diagram name="Page-1" id="VF0y1aDcz5su1bIi3bI6">
    <mxGraphModel dx="1120" dy="547" grid="1" gridSize="10" guides="1" tooltips="1" connect="1" arrows="1" fold="1" page="1" pageScale="1" pageWidth="850" pageHeight="1100" math="0" shadow="0">
      <root>
        <mxCell id="0" />
        <mxCell id="1" parent="0" />
        <mxCell id="4bx4nQR8MUudnulczVn6-1" value="&lt;font style=&quot;font-size: 24px;&quot;&gt;Denarius Data Storage Activity Diagrams&lt;/font&gt;" style="text;html=1;align=center;verticalAlign=middle;whiteSpace=wrap;rounded=0;" vertex="1" parent="1">
          <mxGeometry x="160" y="10" width="530" height="30" as="geometry" />
        </mxCell>
        <mxCell id="4bx4nQR8MUudnulczVn6-2" value="" style="ellipse;html=1;shape=startState;fillColor=#000000;strokeColor=#ff0000;" vertex="1" parent="1">
          <mxGeometry x="410" y="438" width="30" height="30" as="geometry" />
        </mxCell>
        <mxCell id="4bx4nQR8MUudnulczVn6-3" value="" style="edgeStyle=orthogonalEdgeStyle;html=1;verticalAlign=bottom;endArrow=open;endSize=8;strokeColor=#ff0000;rounded=0;entryX=0.5;entryY=0;entryDx=0;entryDy=0;" edge="1" source="4bx4nQR8MUudnulczVn6-2" parent="1" target="4bx4nQR8MUudnulczVn6-5">
          <mxGeometry relative="1" as="geometry">
            <mxPoint x="420" y="528" as="targetPoint" />
          </mxGeometry>
        </mxCell>
        <mxCell id="4bx4nQR8MUudnulczVn6-4" value="app asks for stored project data." style="text;html=1;align=left;verticalAlign=middle;whiteSpace=wrap;rounded=0;" vertex="1" parent="1">
          <mxGeometry x="435" y="468" width="105" height="30" as="geometry" />
        </mxCell>
        <mxCell id="4bx4nQR8MUudnulczVn6-5" value="Synchronous function returns what is stored in local storage." style="rounded=1;whiteSpace=wrap;html=1;arcSize=40;fontColor=#000000;fillColor=#ffffc0;strokeColor=#ff0000;" vertex="1" parent="1">
          <mxGeometry x="335" y="510" width="180" height="40" as="geometry" />
        </mxCell>
        <mxCell id="4bx4nQR8MUudnulczVn6-6" value="" style="edgeStyle=orthogonalEdgeStyle;html=1;verticalAlign=bottom;endArrow=open;endSize=8;strokeColor=#ff0000;rounded=0;entryX=0.5;entryY=0;entryDx=0;entryDy=0;" edge="1" source="4bx4nQR8MUudnulczVn6-5" parent="1" target="4bx4nQR8MUudnulczVn6-49">
          <mxGeometry relative="1" as="geometry">
            <mxPoint x="425" y="570" as="targetPoint" />
          </mxGeometry>
        </mxCell>
        <mxCell id="4bx4nQR8MUudnulczVn6-57" value="" style="edgeStyle=orthogonalEdgeStyle;rounded=0;orthogonalLoop=1;jettySize=auto;html=1;" edge="1" parent="1" source="4bx4nQR8MUudnulczVn6-8" target="4bx4nQR8MUudnulczVn6-13">
          <mxGeometry relative="1" as="geometry" />
        </mxCell>
        <mxCell id="4bx4nQR8MUudnulczVn6-8" value="Asynchronous function that fetches data in cloud storage (via API) for comparison to data in local storage." style="rounded=1;whiteSpace=wrap;html=1;arcSize=40;fontColor=#000000;fillColor=#ffffc0;strokeColor=#ff0000;" vertex="1" parent="1">
          <mxGeometry x="245" y="170" width="360" height="40" as="geometry" />
        </mxCell>
        <mxCell id="4bx4nQR8MUudnulczVn6-9" value="" style="edgeStyle=orthogonalEdgeStyle;html=1;verticalAlign=bottom;endArrow=open;endSize=8;strokeColor=#ff0000;rounded=0;entryX=0.5;entryY=0;entryDx=0;entryDy=0;exitX=0.5;exitY=1;exitDx=0;exitDy=0;" edge="1" source="4bx4nQR8MUudnulczVn6-8" parent="1" target="4bx4nQR8MUudnulczVn6-13">
          <mxGeometry relative="1" as="geometry">
            <mxPoint x="425" y="260" as="targetPoint" />
            <mxPoint x="425" y="209" as="sourcePoint" />
          </mxGeometry>
        </mxCell>
        <mxCell id="4bx4nQR8MUudnulczVn6-10" value="Remember, this is asynchronous, so the call stack is never blocked&amp;nbsp; by these expensive operations and the user experience is not degraded." style="text;html=1;align=left;verticalAlign=middle;whiteSpace=wrap;rounded=0;" vertex="1" parent="1">
          <mxGeometry x="40" y="170" width="150" height="84" as="geometry" />
        </mxCell>
        <mxCell id="4bx4nQR8MUudnulczVn6-13" value="JSON from API equals JSON from Local storage?" style="rhombus;whiteSpace=wrap;html=1;fontColor=#000000;fillColor=#ffffc0;strokeColor=#ff0000;" vertex="1" parent="1">
          <mxGeometry x="263" y="240" width="325" height="64" as="geometry" />
        </mxCell>
        <mxCell id="4bx4nQR8MUudnulczVn6-14" value="no" style="edgeStyle=orthogonalEdgeStyle;html=1;align=left;verticalAlign=bottom;endArrow=open;endSize=8;strokeColor=#ff0000;rounded=0;entryX=0;entryY=0.5;entryDx=0;entryDy=0;" edge="1" source="4bx4nQR8MUudnulczVn6-13" parent="1" target="4bx4nQR8MUudnulczVn6-19">
          <mxGeometry x="-1" relative="1" as="geometry">
            <mxPoint x="650" y="272" as="targetPoint" />
          </mxGeometry>
        </mxCell>
        <mxCell id="4bx4nQR8MUudnulczVn6-15" value="yes" style="edgeStyle=orthogonalEdgeStyle;html=1;align=left;verticalAlign=top;endArrow=open;endSize=8;strokeColor=#ff0000;rounded=0;entryX=0.5;entryY=0.1;entryDx=0;entryDy=0;entryPerimeter=0;" edge="1" source="4bx4nQR8MUudnulczVn6-13" parent="1" target="4bx4nQR8MUudnulczVn6-58">
          <mxGeometry x="-1" relative="1" as="geometry">
            <mxPoint x="426" y="350" as="targetPoint" />
          </mxGeometry>
        </mxCell>
        <mxCell id="4bx4nQR8MUudnulczVn6-16" value="" style="ellipse;html=1;shape=endState;fillColor=#000000;strokeColor=#ff0000;" vertex="1" parent="1">
          <mxGeometry x="410" y="372" width="30" height="30" as="geometry" />
        </mxCell>
        <mxCell id="4bx4nQR8MUudnulczVn6-19" value="Identify descrepancies." style="rounded=1;whiteSpace=wrap;html=1;arcSize=40;fontColor=#000000;fillColor=#ffffc0;strokeColor=#ff0000;" vertex="1" parent="1">
          <mxGeometry x="640" y="253" width="140" height="37" as="geometry" />
        </mxCell>
        <mxCell id="4bx4nQR8MUudnulczVn6-20" value="" style="edgeStyle=orthogonalEdgeStyle;html=1;verticalAlign=bottom;endArrow=open;endSize=8;strokeColor=#ff0000;rounded=0;entryX=0.5;entryY=0;entryDx=0;entryDy=0;" edge="1" source="4bx4nQR8MUudnulczVn6-19" parent="1" target="4bx4nQR8MUudnulczVn6-21">
          <mxGeometry relative="1" as="geometry">
            <mxPoint x="710" y="340" as="targetPoint" />
          </mxGeometry>
        </mxCell>
        <mxCell id="4bx4nQR8MUudnulczVn6-21" value="Make API calls to make cloud storage identical to local storage." style="rounded=1;whiteSpace=wrap;html=1;arcSize=40;fontColor=#000000;fillColor=#ffffc0;strokeColor=#ff0000;" vertex="1" parent="1">
          <mxGeometry x="650" y="320" width="120" height="70" as="geometry" />
        </mxCell>
        <mxCell id="4bx4nQR8MUudnulczVn6-22" value="" style="edgeStyle=orthogonalEdgeStyle;html=1;verticalAlign=bottom;endArrow=open;endSize=8;strokeColor=#ff0000;rounded=0;exitX=1;exitY=0.5;exitDx=0;exitDy=0;entryX=1;entryY=0.5;entryDx=0;entryDy=0;" edge="1" source="4bx4nQR8MUudnulczVn6-21" parent="1" target="4bx4nQR8MUudnulczVn6-8">
          <mxGeometry relative="1" as="geometry">
            <mxPoint x="820" y="190" as="targetPoint" />
            <Array as="points">
              <mxPoint x="810" y="355" />
              <mxPoint x="810" y="190" />
            </Array>
          </mxGeometry>
        </mxCell>
        <mxCell id="4bx4nQR8MUudnulczVn6-23" value="STRICTLY for confirmation" style="text;html=1;align=center;verticalAlign=middle;whiteSpace=wrap;rounded=0;" vertex="1" parent="1">
          <mxGeometry x="640" y="150" width="150" height="30" as="geometry" />
        </mxCell>
        <mxCell id="4bx4nQR8MUudnulczVn6-25" value="Synchroniser" style="shape=umlFrame;whiteSpace=wrap;html=1;pointerEvents=0;" vertex="1" parent="1">
          <mxGeometry x="20" y="40" width="810" height="370" as="geometry" />
        </mxCell>
        <mxCell id="4bx4nQR8MUudnulczVn6-26" value="" style="ellipse;html=1;shape=startState;fillColor=#000000;strokeColor=#ff0000;" vertex="1" parent="1">
          <mxGeometry x="410" y="710" width="30" height="30" as="geometry" />
        </mxCell>
        <mxCell id="4bx4nQR8MUudnulczVn6-27" value="" style="edgeStyle=orthogonalEdgeStyle;html=1;verticalAlign=bottom;endArrow=open;endSize=8;strokeColor=#ff0000;rounded=0;entryX=0.5;entryY=0;entryDx=0;entryDy=0;" edge="1" source="4bx4nQR8MUudnulczVn6-26" parent="1" target="4bx4nQR8MUudnulczVn6-29">
          <mxGeometry relative="1" as="geometry">
            <mxPoint x="425" y="800" as="targetPoint" />
          </mxGeometry>
        </mxCell>
        <mxCell id="4bx4nQR8MUudnulczVn6-28" value="PubSub calls." style="text;html=1;align=left;verticalAlign=middle;whiteSpace=wrap;rounded=0;" vertex="1" parent="1">
          <mxGeometry x="440" y="740" width="80" height="30" as="geometry" />
        </mxCell>
        <mxCell id="4bx4nQR8MUudnulczVn6-29" value="Update local storage." style="rounded=1;whiteSpace=wrap;html=1;arcSize=40;fontColor=#000000;fillColor=#ffffc0;strokeColor=#ff0000;" vertex="1" parent="1">
          <mxGeometry x="365" y="780" width="120" height="40" as="geometry" />
        </mxCell>
        <mxCell id="4bx4nQR8MUudnulczVn6-30" value="" style="edgeStyle=orthogonalEdgeStyle;html=1;verticalAlign=bottom;endArrow=open;endSize=8;strokeColor=#ff0000;rounded=0;entryX=0.5;entryY=0;entryDx=0;entryDy=0;" edge="1" source="4bx4nQR8MUudnulczVn6-29" parent="1" target="4bx4nQR8MUudnulczVn6-51">
          <mxGeometry relative="1" as="geometry">
            <mxPoint x="425.5" y="850" as="targetPoint" />
          </mxGeometry>
        </mxCell>
        <mxCell id="4bx4nQR8MUudnulczVn6-38" value="" style="ellipse;html=1;shape=startState;fillColor=#000000;strokeColor=#ff0000;" vertex="1" parent="1">
          <mxGeometry x="410" y="50" width="30" height="30" as="geometry" />
        </mxCell>
        <mxCell id="4bx4nQR8MUudnulczVn6-39" value="" style="edgeStyle=orthogonalEdgeStyle;html=1;verticalAlign=bottom;endArrow=open;endSize=8;strokeColor=#ff0000;rounded=0;entryX=0.5;entryY=0;entryDx=0;entryDy=0;exitX=0.5;exitY=1;exitDx=0;exitDy=0;" edge="1" source="4bx4nQR8MUudnulczVn6-38" parent="1" target="4bx4nQR8MUudnulczVn6-54">
          <mxGeometry relative="1" as="geometry">
            <mxPoint x="425" y="170" as="targetPoint" />
            <mxPoint x="425" y="150" as="sourcePoint" />
          </mxGeometry>
        </mxCell>
        <mxCell id="4bx4nQR8MUudnulczVn6-42" value="On start-up" style="shape=umlFrame;whiteSpace=wrap;html=1;pointerEvents=0;" vertex="1" parent="1">
          <mxGeometry x="310" y="425" width="230" height="250" as="geometry" />
        </mxCell>
        <mxCell id="4bx4nQR8MUudnulczVn6-46" value="" style="ellipse;html=1;shape=endState;fillColor=#000000;strokeColor=#ff0000;" vertex="1" parent="1">
          <mxGeometry x="410" y="630" width="30" height="30" as="geometry" />
        </mxCell>
        <mxCell id="4bx4nQR8MUudnulczVn6-48" value="While running" style="shape=umlFrame;whiteSpace=wrap;html=1;pointerEvents=0;" vertex="1" parent="1">
          <mxGeometry x="325" y="700" width="200" height="270" as="geometry" />
        </mxCell>
        <mxCell id="4bx4nQR8MUudnulczVn6-49" value="Synchroniser" style="rounded=1;whiteSpace=wrap;html=1;arcSize=40;fontColor=#000000;fillColor=#ffffc0;strokeColor=#ff0000;" vertex="1" parent="1">
          <mxGeometry x="365" y="570" width="120" height="40" as="geometry" />
        </mxCell>
        <mxCell id="4bx4nQR8MUudnulczVn6-50" value="" style="edgeStyle=orthogonalEdgeStyle;html=1;verticalAlign=bottom;endArrow=open;endSize=8;strokeColor=#ff0000;rounded=0;entryX=0.5;entryY=0;entryDx=0;entryDy=0;" edge="1" source="4bx4nQR8MUudnulczVn6-49" parent="1" target="4bx4nQR8MUudnulczVn6-46">
          <mxGeometry relative="1" as="geometry">
            <mxPoint x="380" y="870" as="targetPoint" />
          </mxGeometry>
        </mxCell>
        <mxCell id="4bx4nQR8MUudnulczVn6-51" value="Synchroniser" style="rounded=1;whiteSpace=wrap;html=1;arcSize=40;fontColor=#000000;fillColor=#ffffc0;strokeColor=#ff0000;" vertex="1" parent="1">
          <mxGeometry x="365" y="840" width="120" height="40" as="geometry" />
        </mxCell>
        <mxCell id="4bx4nQR8MUudnulczVn6-52" value="" style="edgeStyle=orthogonalEdgeStyle;html=1;verticalAlign=bottom;endArrow=open;endSize=8;strokeColor=#ff0000;rounded=0;entryX=0.5;entryY=0;entryDx=0;entryDy=0;" edge="1" source="4bx4nQR8MUudnulczVn6-51" parent="1" target="4bx4nQR8MUudnulczVn6-53">
          <mxGeometry relative="1" as="geometry">
            <mxPoint x="425" y="920" as="targetPoint" />
          </mxGeometry>
        </mxCell>
        <mxCell id="4bx4nQR8MUudnulczVn6-53" value="" style="ellipse;html=1;shape=endState;fillColor=#000000;strokeColor=#ff0000;" vertex="1" parent="1">
          <mxGeometry x="410" y="910" width="30" height="30" as="geometry" />
        </mxCell>
        <mxCell id="4bx4nQR8MUudnulczVn6-54" value="Online?" style="rhombus;whiteSpace=wrap;html=1;fontColor=#000000;fillColor=#ffffc0;strokeColor=#ff0000;" vertex="1" parent="1">
          <mxGeometry x="385" y="100" width="80" height="40" as="geometry" />
        </mxCell>
        <mxCell id="4bx4nQR8MUudnulczVn6-55" value="no" style="edgeStyle=orthogonalEdgeStyle;html=1;align=left;verticalAlign=bottom;endArrow=open;endSize=8;strokeColor=#ff0000;rounded=0;exitX=0;exitY=0.5;exitDx=0;exitDy=0;entryX=0.25;entryY=0.5;entryDx=0;entryDy=0;entryPerimeter=0;" edge="1" source="4bx4nQR8MUudnulczVn6-54" parent="1" target="4bx4nQR8MUudnulczVn6-58">
          <mxGeometry x="-0.9094" relative="1" as="geometry">
            <mxPoint x="565" y="134" as="targetPoint" />
            <Array as="points">
              <mxPoint x="220" y="120" />
              <mxPoint x="220" y="310" />
              <mxPoint x="375" y="310" />
            </Array>
            <mxPoint as="offset" />
          </mxGeometry>
        </mxCell>
        <mxCell id="4bx4nQR8MUudnulczVn6-56" value="yes" style="edgeStyle=orthogonalEdgeStyle;html=1;align=left;verticalAlign=top;endArrow=open;endSize=8;strokeColor=#ff0000;rounded=0;entryX=0.5;entryY=0;entryDx=0;entryDy=0;" edge="1" source="4bx4nQR8MUudnulczVn6-54" parent="1" target="4bx4nQR8MUudnulczVn6-8">
          <mxGeometry x="-1" relative="1" as="geometry">
            <mxPoint x="425" y="214" as="targetPoint" />
          </mxGeometry>
        </mxCell>
        <mxCell id="4bx4nQR8MUudnulczVn6-58" value="" style="shape=line;html=1;strokeWidth=6;strokeColor=#ff0000;" vertex="1" parent="1">
          <mxGeometry x="325" y="347" width="200" height="10" as="geometry" />
        </mxCell>
        <mxCell id="4bx4nQR8MUudnulczVn6-59" value="" style="edgeStyle=orthogonalEdgeStyle;html=1;verticalAlign=bottom;endArrow=open;endSize=8;strokeColor=#ff0000;rounded=0;entryX=0.5;entryY=0;entryDx=0;entryDy=0;" edge="1" source="4bx4nQR8MUudnulczVn6-58" parent="1" target="4bx4nQR8MUudnulczVn6-16">
          <mxGeometry relative="1" as="geometry">
            <mxPoint x="425" y="402" as="targetPoint" />
          </mxGeometry>
        </mxCell>
      </root>
    </mxGraphModel>
  </diagram>
</mxfile>
